<svg viewBox="0 0 512 512" xmlns="http://www.w3.org/2000/svg">
  <defs>
    <radialGradient id="disc" cx="50%" cy="42%" r="65%">
      <stop offset="0%" stop-color="#3B2E7E"/>
      <stop offset="100%" stop-color="#1E1550"/>
    </radialGradient>
  </defs>
  <!-- starry disc -->
  <circle cx="256" cy="256" r="250" fill="url(#disc)"/>
  <g fill="#FFFFFF">
    <circle cx="110" cy="130" r="5" opacity="0.9"/>
    <circle cx="410" cy="150" r="6" opacity="0.85"/>
    <circle cx="150" cy="380" r="4" opacity="0.8"/>
    <circle cx="392" cy="360" r="5" opacity="0.85"/>
    <circle cx="256" cy="70" r="4" opacity="0.8"/>
    <path d="M430 250l6 12 13 2-9 9 2 13-12-6-12 6 2-13-9-9 13-2z" fill="#FFC93C" opacity="0.95"/>
    <path d="M80 250l5 10 11 1-8 8 2 11-10-5-10 5 2-11-8-8 11-1z" fill="#FFC93C" opacity="0.9"/>
  </g>
  <!-- boo: cream halo + indigo body + big ears -->
  <g stroke="#2A1B4E" stroke-width="12" stroke-linejoin="round">
    <ellipse cx="150" cy="215" rx="52" ry="66" fill="#FFF8F0" stroke="#FFF8F0" stroke-width="26" transform="rotate(-14 150 215)"/>
    <ellipse cx="362" cy="215" rx="52" ry="66" fill="#FFF8F0" stroke="#FFF8F0" stroke-width="26" transform="rotate(14 362 215)"/>
    <ellipse cx="256" cy="300" rx="150" ry="140" fill="#FFF8F0" stroke="#FFF8F0" stroke-width="26"/>
    <ellipse cx="150" cy="215" rx="52" ry="66" fill="#6E5CE0" transform="rotate(-14 150 215)"/>
    <ellipse cx="362" cy="215" rx="52" ry="66" fill="#6E5CE0" transform="rotate(14 362 215)"/>
    <ellipse cx="256" cy="300" rx="150" ry="140" fill="#6E5CE0"/>
  </g>
  <!-- inner ears -->
  <ellipse cx="150" cy="222" rx="26" ry="38" fill="#FF9EC4" opacity="0.85" transform="rotate(-14 150 222)"/>
  <ellipse cx="362" cy="222" rx="26" ry="38" fill="#FF9EC4" opacity="0.85" transform="rotate(14 362 222)"/>
  <!-- cheeks -->
  <ellipse cx="150" cy="345" rx="30" ry="18" fill="#FF9EC4" opacity="0.6"/>
  <ellipse cx="362" cy="345" rx="30" ry="18" fill="#FF9EC4" opacity="0.6"/>
  <!-- eyes -->
  <circle cx="196" cy="315" r="46" fill="#fff" stroke="#2A1B4E" stroke-width="8"/>
  <circle cx="316" cy="315" r="46" fill="#fff" stroke="#2A1B4E" stroke-width="8"/>
  <circle cx="200" cy="322" r="28" fill="#2A1B4E"/>
  <circle cx="320" cy="322" r="28" fill="#2A1B4E"/>
  <circle cx="190" cy="310" r="11" fill="#fff"/>
  <circle cx="310" cy="310" r="11" fill="#fff"/>
  <!-- little grin + fangs -->
  <path d="M232 372 Q256 392 280 372" fill="none" stroke="#2A1B4E" stroke-width="9" stroke-linecap="round"/>
  <path d="M238 376 l8 16 8-16z" fill="#fff" stroke="#2A1B4E" stroke-width="4"/>
  <path d="M266 376 l8 16 8-16z" fill="#fff" stroke="#2A1B4E" stroke-width="4"/>
</svg>
